<svg xmlns="http://www.w3.org/2000/svg" viewBox="0 0 800 600">
    <!-- Background -->
    <rect width="800" height="600" fill="#f8f9fa"/>
    
    <!-- Laptop -->
    <g transform="translate(300,200)">
        <rect x="0" y="0" width="200" height="120" rx="10" fill="#4e73df"/>
        <rect x="10" y="10" width="180" height="100" rx="5" fill="#ffffff"/>
        <rect x="60" y="120" width="80" height="10" fill="#4e73df"/>
    </g>
    
    <!-- Projector -->
    <g transform="translate(200,300)">
        <rect x="0" y="0" width="100" height="60" rx="5" fill="#1cc88a"/>
        <circle cx="80" cy="30" r="10" fill="#ffffff"/>
        <rect x="0" y="20" width="20" height="20" fill="#1cc88a"/>
    </g>
    
    <!-- Camera -->
    <g transform="translate(500,250)">
        <rect x="0" y="0" width="80" height="50" rx="5" fill="#36b9cc"/>
        <circle cx="40" cy="25" r="15" fill="#ffffff"/>
        <circle cx="40" cy="25" r="10" fill="#36b9cc"/>
    </g>
    
    <!-- Decorative circles -->
    <circle cx="100" cy="100" r="30" fill="#4e73df" opacity="0.1"/>
    <circle cx="700" cy="500" r="40" fill="#1cc88a" opacity="0.1"/>
    <circle cx="600" cy="150" r="25" fill="#36b9cc" opacity="0.1"/>
    
    <!-- Connection lines -->
    <path d="M 300 250 L 400 300" stroke="#4e73df" stroke-width="2" stroke-dasharray="5,5"/>
    <path d="M 500 275 L 400 300" stroke="#4e73df" stroke-width="2" stroke-dasharray="5,5"/>
    <path d="M 250 300 L 400 300" stroke="#4e73df" stroke-width="2" stroke-dasharray="5,5"/>
</svg> 